<svg width="278" height="32" viewBox="0 0 278 32" fill="none" xmlns="http://www.w3.org/2000/svg">
<g clip-path="url(#clip0_159_7873)">
<path d="M123.189 31.5999H4.81754C2.41765 31.5999 0.476562 29.9462 0.476562 27.9128V4.09142C0.476562 2.05301 2.42353 0.404297 4.81754 0.404297H123.189C125.588 0.404297 127.53 2.058 127.53 4.09142V27.9078C127.53 29.9462 125.583 31.5999 123.189 31.5999Z" fill="black"/>
<path d="M123.188 32H4.81743C2.15872 32 0 30.1664 0 27.9082V4.0918C0 1.83357 2.15872 0 4.81743 0H123.188C125.847 0 128.006 1.83357 128.006 4.0918V27.9082C128 30.1664 125.841 32 123.188 32ZM4.81743 0.809368C2.68223 0.809368 0.952897 2.28322 0.952897 4.0968V27.9132C0.952897 29.7268 2.68811 31.1956 4.81743 31.1956H123.188C125.324 31.1956 127.053 29.7218 127.053 27.9132V4.0918C127.053 2.27822 125.318 0.804372 123.188 0.804372H4.81743V0.809368Z" fill="#A7A9AC"/>
<path d="M64.5736 17.5009C62.3501 17.5009 60.5326 18.9398 60.5326 20.9182C60.5326 22.8867 62.3443 24.3356 64.5736 24.3356C66.797 24.3356 68.6146 22.8867 68.6146 20.9182C68.6087 18.9398 66.797 17.5009 64.5736 17.5009ZM64.5736 22.9916C63.356 22.9916 62.3031 22.1373 62.3031 20.9182C62.3031 19.6892 63.356 18.8449 64.5736 18.8449C65.7912 18.8449 66.8441 19.6842 66.8441 20.9182C66.8441 22.1373 65.7912 22.9916 64.5736 22.9916ZM55.7622 17.5009C53.5388 17.5009 51.7212 18.9398 51.7212 20.9182C51.7212 22.8867 53.5329 24.3356 55.7622 24.3356C57.9856 24.3356 59.8032 22.8867 59.8032 20.9182C59.7973 18.9398 57.9856 17.5009 55.7622 17.5009ZM55.7622 22.9916C54.5446 22.9916 53.4917 22.1373 53.4917 20.9182C53.4917 19.6892 54.5446 18.8449 55.7622 18.8449C56.9798 18.8449 58.0327 19.6842 58.0327 20.9182C58.0327 22.1373 56.9798 22.9916 55.7622 22.9916ZM45.2803 18.5501V19.999H49.3625C49.239 20.8133 48.9213 21.4079 48.4331 21.8225C47.839 22.3271 46.9097 22.8817 45.2803 22.8817C42.7628 22.8817 40.7982 21.1581 40.7982 19.0247C40.7982 16.8914 42.7628 15.1677 45.2803 15.1677C46.6391 15.1677 47.6273 15.6224 48.3567 16.2019L49.5625 15.1777C48.539 14.3484 47.1861 13.7139 45.2803 13.7139C41.8334 13.7139 38.9395 16.097 38.9395 19.0197C38.9395 21.9474 41.8334 24.3256 45.2803 24.3256C47.1391 24.3256 48.5449 23.806 49.639 22.8367C50.7683 21.8775 51.1154 20.5335 51.1154 19.4444C51.1154 19.1096 51.086 18.7949 51.0213 18.5401H45.2803V18.5501ZM88.1431 19.6742C87.8078 18.9098 86.7843 17.5009 84.6962 17.5009C82.6257 17.5009 80.9022 18.8848 80.9022 20.9182C80.9022 22.8317 82.608 24.3356 84.8962 24.3356C86.7431 24.3356 87.8078 23.3763 88.249 22.8217L86.8784 22.0474C86.4196 22.6169 85.7961 22.9916 84.8962 22.9916C83.9962 22.9916 83.3551 22.6419 82.9433 21.9574L88.3254 20.0689L88.1431 19.6742ZM82.6551 20.8133C82.608 19.4943 83.8609 18.8199 84.7609 18.8199C85.4608 18.8199 86.0549 19.1196 86.2549 19.5443L82.6551 20.8133ZM78.2847 24.1307H80.0552V14.0836H78.2847V24.1307ZM75.3848 18.2653H75.326C74.9319 17.8656 74.1672 17.5009 73.2085 17.5009C71.1968 17.5009 69.3498 19.0047 69.3498 20.9332C69.3498 22.8467 71.1968 24.3356 73.2085 24.3356C74.1672 24.3356 74.9319 23.9709 75.326 23.5612H75.3848V24.0508C75.3848 25.3598 74.5613 26.0592 73.2379 26.0592C72.1556 26.0592 71.485 25.3997 71.2086 24.8402L69.6675 25.3847C70.1086 26.289 71.285 27.4032 73.232 27.4032C75.3025 27.4032 77.0554 26.369 77.0554 23.841V17.7057H75.379V18.2653H75.3848ZM73.3614 22.9916C72.1438 22.9916 71.1203 22.1223 71.1203 20.9332C71.1203 19.7292 72.1438 18.8499 73.3614 18.8499C74.5672 18.8499 75.5084 19.7292 75.5084 20.9332C75.5084 22.1223 74.5613 22.9916 73.3614 22.9916ZM96.425 14.0836H92.1958V24.1307H93.9605V20.3237H96.425C98.3838 20.3237 100.307 19.1196 100.307 17.2061C100.307 15.2926 98.3838 14.0836 96.425 14.0836ZM96.4721 18.9248H93.9605V15.4825H96.4721C97.7897 15.4825 98.5426 16.4118 98.5426 17.2061C98.5426 17.9805 97.7897 18.9248 96.4721 18.9248ZM107.377 17.4809C106.101 17.4809 104.778 17.9605 104.231 19.0197L105.795 19.5743C106.13 19.0197 106.754 18.8399 107.407 18.8399C108.319 18.8399 109.248 19.3045 109.266 20.1338V20.2388C108.948 20.0839 108.26 19.8491 107.425 19.8491C105.736 19.8491 104.019 20.6385 104.019 22.1123C104.019 23.4563 105.401 24.3206 106.954 24.3206C108.142 24.3206 108.795 23.8659 109.207 23.3363H109.266V24.1107H110.971V20.2588C110.971 18.4751 109.407 17.4809 107.377 17.4809ZM107.166 22.9866C106.589 22.9866 105.783 22.7418 105.783 22.1323C105.783 21.3579 106.789 21.0581 107.654 21.0581C108.43 21.0581 108.795 21.198 109.266 21.3929C109.13 22.3271 108.189 22.9866 107.166 22.9866ZM117.177 17.7008L115.154 22.0573H115.095L112.995 17.7008H111.095L114.242 23.786L112.448 27.1733H114.289L119.142 17.7008H117.177ZM101.278 24.1307H103.042V14.0836H101.278V24.1307Z" fill="white"/>
<path d="M9.98215 6.08523C9.70569 6.33004 9.54688 6.71474 9.54688 7.21435V24.9705C9.54688 25.4701 9.71157 25.8498 9.98215 26.0996L10.0527 26.1595L21.764 16.2123V16.0924V15.9775L10.0527 6.03027L9.98215 6.08523Z" fill="#5BC9F4"/>
<path d="M25.6704 19.5298L21.7646 16.2124V16.0925V15.9776L25.6704 12.6602L25.7586 12.7051L30.3819 14.9384C31.7054 15.5779 31.7054 16.6171 30.3819 17.2566L25.7586 19.4848L25.6704 19.5298Z" fill="url(#paint0_linear_159_7873)"/>
<path d="M25.7582 19.4851L21.7642 16.0928L9.98242 26.1C10.4177 26.4897 11.1353 26.5396 11.947 26.1499L25.7582 19.4851Z" fill="url(#paint1_linear_159_7873)"/>
<path d="M25.7582 12.6996L11.947 6.03977C11.1353 5.65008 10.4177 5.69504 9.98242 6.08973L21.7642 16.0919L25.7582 12.6996Z" fill="url(#paint2_linear_159_7873)"/>
<path d="M43.4867 6.65551C43.1338 6.38572 42.6632 6.21586 42.1456 6.21586C40.981 6.21586 40.0869 7.03022 40.0869 8.03444C40.0869 9.03365 40.981 9.84802 42.1456 9.84802C43.1456 9.84802 43.8749 9.3534 43.922 8.57401H42.3397V8.01945H44.7808C44.7808 9.67815 43.7397 10.4625 42.1456 10.4625C40.5633 10.4625 39.334 9.37839 39.334 8.03943C39.334 6.69548 40.5633 5.61133 42.1456 5.61133C42.8809 5.61133 43.5456 5.85114 44.0279 6.23584L43.4867 6.65551Z" fill="white"/>
<path d="M49.0977 5.66016V6.25469H46.5508V7.76351H48.7742V8.36304H46.5508V9.79193H49.1742V10.3865H45.7979V5.66016H49.0977Z" fill="white"/>
<path d="M53.9681 5.66016V6.26468H52.28V10.3865H51.5212V6.26468H49.833V5.66016H53.9681Z" fill="white"/>
<path d="M57.5742 5.66016V10.3865H56.8213V5.66016H57.5742Z" fill="white"/>
<path d="M62.6976 5.66016V6.26468H61.0094V10.3865H60.2507V6.26468H58.5625V5.66016H62.6976Z" fill="white"/>
<path d="M67.9972 5.60547C69.5912 5.60547 70.8265 6.68962 70.8265 8.03357C70.8265 9.37253 69.5912 10.4567 67.9972 10.4567C66.4149 10.4567 65.1855 9.37253 65.1855 8.03357C65.1855 6.68962 66.4149 5.60547 67.9972 5.60547ZM67.9972 9.83716C69.1677 9.83716 70.0677 9.03279 70.0677 8.03357C70.0677 7.02936 69.1736 6.21999 67.9972 6.21999C66.8325 6.21999 65.9385 7.02936 65.9385 8.03357C65.9385 9.03779 66.8325 9.83716 67.9972 9.83716Z" fill="white"/>
<path d="M75.2676 10.3865L72.7324 6.82425V10.3865H71.9795V5.66016H72.7206L75.2323 9.1924V5.66016H75.9852V10.3865H75.2676Z" fill="white"/>
</g>
<g clip-path="url(#clip1_159_7873)">
<path d="M273.007 31.5999H154.636C152.236 31.5999 150.295 29.9512 150.295 27.9128V4.09142C150.295 2.05301 152.242 0.404297 154.636 0.404297H273.007C275.407 0.404297 277.348 2.058 277.348 4.09142V27.9078C277.348 29.9462 275.401 31.5999 273.007 31.5999Z" fill="black"/>
<path d="M273.007 32H154.636C151.977 32 149.818 30.1664 149.818 27.9082V4.0918C149.818 1.83357 151.977 0 154.636 0H273.007C275.666 0 277.824 1.83357 277.824 4.0918V27.9082C277.818 30.1664 275.66 32 273.007 32ZM154.636 0.809368C152.501 0.809368 150.771 2.28322 150.771 4.0918V27.9082C150.771 29.7218 152.506 31.1906 154.636 31.1906H273.007C275.142 31.1906 276.871 29.7168 276.871 27.9082V4.0918C276.871 2.27822 275.136 0.809368 273.007 0.809368H154.636Z" fill="#A7A9AC"/>
<path d="M192.433 9.09811L191.898 10.5869H190.733L192.716 5.33105H194.157L196.168 10.5919H194.957L194.398 9.10311H192.433V9.09811ZM194.204 8.37368L193.716 7.07969C193.598 6.75994 193.498 6.40022 193.404 6.09546H193.386C193.292 6.40022 193.204 6.76493 193.092 7.07969L192.616 8.37368H194.204Z" fill="white"/>
<path d="M197.856 6.79004L198.58 8.71853C198.709 9.05327 198.797 9.35803 198.886 9.66779H198.915C198.997 9.35803 199.097 9.05827 199.221 8.71853L199.939 6.79004H201.121L199.415 10.5871H198.303L196.639 6.79004H197.856Z" fill="white"/>
<path d="M205.627 9.67678C205.627 10.0215 205.645 10.3562 205.703 10.5911H204.686L204.603 10.1714H204.574C204.309 10.4662 203.839 10.676 203.251 10.676C202.351 10.676 201.845 10.1214 201.845 9.54688C201.845 8.59762 202.845 8.10301 204.498 8.113V8.04805C204.498 7.79825 204.38 7.38357 203.586 7.38357C203.145 7.38357 202.686 7.49848 202.386 7.66335L202.168 7.03884C202.498 6.86897 203.08 6.7041 203.786 6.7041C205.221 6.7041 205.633 7.4785 205.633 8.31284V9.67678H205.627ZM204.521 8.73252C203.721 8.72252 202.962 8.86741 202.962 9.44196C202.962 9.81667 203.245 9.98654 203.603 9.98654C204.062 9.98654 204.386 9.73673 204.492 9.46195C204.521 9.397 204.521 9.32705 204.521 9.25711V8.73252Z" fill="white"/>
<path d="M207.78 6.24524C207.403 6.24524 207.156 6.01043 207.156 5.73064C207.156 5.43588 207.415 5.20605 207.792 5.20605C208.18 5.20605 208.415 5.43088 208.427 5.73064C208.427 6.01043 208.18 6.24524 207.792 6.24524H207.78ZM207.221 10.5918V6.79481H208.35V10.5918H207.221Z" fill="white"/>
<path d="M209.974 5.0459H211.103V10.5916H209.974V5.0459Z" fill="white"/>
<path d="M216.209 9.67678C216.209 10.0215 216.227 10.3562 216.28 10.5911H215.262L215.18 10.1714H215.15C214.885 10.4662 214.415 10.676 213.827 10.676C212.927 10.676 212.421 10.1214 212.421 9.54688C212.421 8.59762 213.421 8.10301 215.074 8.113V8.04805C215.074 7.79825 214.956 7.38357 214.168 7.38357C213.727 7.38357 213.268 7.49848 212.968 7.66335L212.75 7.03884C213.08 6.86897 213.662 6.7041 214.368 6.7041C215.797 6.7041 216.215 7.4785 216.215 8.31284V9.67678H216.209ZM215.103 8.73252C214.303 8.72252 213.544 8.86741 213.544 9.44196C213.544 9.81667 213.827 9.98654 214.186 9.98654C214.644 9.98654 214.968 9.73673 215.074 9.46195C215.103 9.392 215.103 9.32206 215.103 9.25211V8.73252Z" fill="white"/>
<path d="M217.803 5.0459H218.932V7.31413H218.95C219.226 6.94941 219.715 6.7046 220.385 6.7046C221.479 6.7046 222.256 7.479 222.25 8.6331C222.25 9.99703 221.232 10.6765 220.22 10.6765C219.644 10.6765 219.126 10.4866 218.809 10.022H218.791L218.738 10.5916H217.773C217.791 10.3318 217.809 9.9121 217.809 9.53239V5.0459H217.803ZM218.932 9.02279C218.932 9.10273 218.944 9.17767 218.962 9.24761C219.079 9.63731 219.473 9.91709 219.962 9.91709C220.667 9.91709 221.103 9.44246 221.103 8.66807C221.103 7.99859 220.726 7.45402 219.973 7.45402C219.515 7.45402 219.091 7.7338 218.973 8.15347C218.956 8.22341 218.938 8.30835 218.938 8.40327V9.02279H218.932Z" fill="white"/>
<path d="M223.579 5.0459H224.708V10.5916H223.579V5.0459Z" fill="white"/>
<path d="M227.138 8.95734C227.167 9.64181 227.797 9.94157 228.514 9.94157C229.038 9.94157 229.403 9.87163 229.755 9.77171L229.92 10.4262C229.532 10.5661 229.003 10.666 228.361 10.666C226.909 10.666 226.056 9.9116 226.056 8.74751C226.056 7.69333 226.809 6.7041 228.244 6.7041C229.697 6.7041 230.173 7.71831 230.173 8.55266C230.173 8.73252 230.155 8.87241 230.138 8.95734H227.138ZM229.103 8.28786C229.114 7.93814 228.926 7.35859 228.173 7.35859C227.473 7.35859 227.179 7.89817 227.138 8.28786H229.103Z" fill="white"/>
<path d="M235.743 10.676C234.484 10.676 233.502 9.94157 233.502 8.71753C233.502 7.4685 234.467 6.7041 235.814 6.7041C237.143 6.7041 238.037 7.49848 238.037 8.65258C238.037 10.0465 236.878 10.671 235.749 10.671H235.743V10.676ZM235.778 9.98154C236.419 9.98154 236.872 9.45196 236.872 8.67756C236.872 8.08302 236.561 7.39856 235.79 7.39856C234.99 7.39856 234.667 8.06304 234.667 8.69255C234.667 9.42697 235.096 9.98154 235.767 9.98154H235.778Z" fill="white"/>
<path d="M239.366 7.92401C239.366 7.48935 239.349 7.11964 239.331 6.79489H240.313L240.366 7.36445H240.396C240.596 7.06968 241.084 6.70996 241.831 6.70996C242.613 6.70996 243.419 7.13963 243.419 8.33869V10.5919H242.29V8.44361C242.29 7.89903 242.049 7.48436 241.437 7.48436C240.99 7.48436 240.678 7.75914 240.555 8.04392C240.519 8.12386 240.502 8.23877 240.502 8.34868V10.5869H239.372V7.92401H239.366Z" fill="white"/>
<path d="M248.619 5.81543V6.78967H249.695V7.50911H248.619V9.1778C248.619 9.64744 248.766 9.87726 249.195 9.87726C249.395 9.87726 249.507 9.86726 249.637 9.83729L249.654 10.5617C249.49 10.6167 249.184 10.6616 248.837 10.6616C248.413 10.6616 248.078 10.5467 247.866 10.3519C247.619 10.1321 247.507 9.78233 247.507 9.28272V7.50411H246.872V6.78467H247.507V6.07523L248.619 5.81543Z" fill="white"/>
<path d="M250.948 5.0459H252.078V7.30913H252.095C252.231 7.12927 252.425 6.97939 252.654 6.87947C252.883 6.76955 253.148 6.7096 253.436 6.7096C254.195 6.7096 254.995 7.13926 254.995 8.35331V10.5916H253.866V8.45324C253.866 7.90866 253.625 7.48399 253.001 7.48399C252.56 7.48399 252.248 7.7338 252.119 8.02357C252.084 8.10851 252.072 8.21342 252.072 8.31335V10.5916H250.942V5.0459H250.948Z" fill="white"/>
<path d="M257.401 8.95734C257.43 9.64181 258.059 9.94157 258.777 9.94157C259.301 9.94157 259.665 9.87163 260.018 9.77171L260.183 10.4262C259.795 10.5661 259.265 10.666 258.624 10.666C257.171 10.666 256.318 9.9116 256.318 8.74751C256.318 7.69333 257.071 6.7041 258.506 6.7041C259.959 6.7041 260.436 7.71831 260.436 8.55266C260.436 8.73252 260.418 8.87241 260.401 8.95734H257.401ZM259.365 8.28786C259.377 7.93814 259.189 7.35859 258.436 7.35859C257.736 7.35859 257.442 7.89817 257.401 8.28786H259.365Z" fill="white"/>
<path d="M178.388 15.6882C178.358 13.0852 180.893 11.8212 181.011 11.7612C179.576 9.98261 177.346 9.7378 176.564 9.71782C174.694 9.55295 172.882 10.6671 171.929 10.6671C170.958 10.6671 169.488 9.73281 167.912 9.75779C165.876 9.78776 163.976 10.787 162.929 12.3358C160.777 15.5033 162.382 20.1547 164.447 22.7177C165.482 23.9717 166.688 25.3706 168.265 25.3206C169.806 25.2657 170.382 24.4863 172.247 24.4863C174.094 24.4863 174.635 25.3206 176.246 25.2907C177.905 25.2657 178.946 24.0316 179.94 22.7676C181.134 21.3287 181.611 19.9149 181.634 19.8449C181.593 19.8399 178.417 18.8057 178.388 15.6882Z" fill="white"/>
<path d="M175.341 8.03875C176.17 7.15444 176.741 5.95538 176.582 4.73633C175.382 4.78129 173.876 5.44078 173.011 6.3051C172.247 7.06451 171.558 8.31353 171.735 9.48262C173.094 9.57255 174.476 8.90807 175.341 8.03875Z" fill="white"/>
<path d="M200.704 25.1208H198.551L197.375 21.9733H193.281L192.158 25.1208H190.063L194.122 14.4092H196.628L200.704 25.1208ZM197.022 20.6543L195.957 17.8565C195.846 17.5717 195.634 16.8972 195.322 15.8381H195.287C195.163 16.2927 194.963 16.9672 194.687 17.8565L193.64 20.6543H197.022Z" fill="white"/>
<path d="M211.145 21.1642C211.145 22.4782 210.728 23.5174 209.892 24.2768C209.145 24.9563 208.216 25.291 207.104 25.291C205.904 25.291 205.045 24.9263 204.522 24.1969H204.487V28.2637H202.463V19.9402C202.463 19.1158 202.44 18.2665 202.387 17.3972H204.163L204.275 18.6212H204.316C204.987 17.6969 206.01 17.2373 207.381 17.2373C208.451 17.2373 209.351 17.597 210.063 18.3165C210.786 19.0459 211.145 19.9902 211.145 21.1642ZM209.086 21.2292C209.086 20.4798 208.886 19.8553 208.486 19.3706C208.051 18.861 207.463 18.6062 206.728 18.6062C206.228 18.6062 205.775 18.7461 205.369 19.0259C204.963 19.3107 204.698 19.6754 204.575 20.13C204.51 20.3399 204.481 20.5147 204.481 20.6546V21.9436C204.481 22.5032 204.681 22.9778 205.087 23.3625C205.492 23.7522 206.022 23.9421 206.669 23.9421C207.428 23.9421 208.022 23.6973 208.445 23.1976C208.875 22.703 209.086 22.0436 209.086 21.2292Z" fill="white"/>
<path d="M221.603 21.1642C221.603 22.4782 221.185 23.5174 220.35 24.2768C219.603 24.9563 218.674 25.291 217.562 25.291C216.368 25.291 215.503 24.9263 214.98 24.1969H214.945V28.2637H212.927V19.9402C212.927 19.1158 212.904 18.2665 212.851 17.3972H214.627L214.739 18.6212H214.78C215.45 17.6969 216.474 17.2373 217.844 17.2373C218.915 17.2373 219.809 17.597 220.527 18.3165C221.244 19.0459 221.603 19.9902 221.603 21.1642ZM219.544 21.2292C219.544 20.4798 219.344 19.8553 218.944 19.3706C218.509 18.861 217.921 18.6062 217.186 18.6062C216.686 18.6062 216.233 18.7461 215.827 19.0259C215.421 19.3107 215.156 19.6754 215.033 20.13C214.968 20.3399 214.939 20.5147 214.939 20.6546V21.9436C214.939 22.5032 215.139 22.9778 215.545 23.3625C215.95 23.7522 216.474 23.9421 217.127 23.9421C217.886 23.9421 218.48 23.6973 218.903 23.1976C219.333 22.703 219.544 22.0436 219.544 21.2292Z" fill="white"/>
<path d="M233.297 22.1177C233.297 23.0269 232.926 23.7714 232.173 24.3409C231.35 24.9654 230.209 25.2802 228.738 25.2802C227.379 25.2802 226.291 25.0604 225.468 24.6157L225.938 23.1868C226.827 23.6415 227.797 23.8713 228.862 23.8713C229.621 23.8713 230.215 23.7264 230.638 23.4366C231.062 23.1419 231.273 22.7522 231.273 22.2675C231.273 21.8329 231.097 21.4682 230.75 21.1684C230.403 20.8686 229.821 20.5938 229.009 20.339C226.803 19.6396 225.697 18.6154 225.697 17.2664C225.697 16.3871 226.085 15.6627 226.856 15.1031C227.626 14.5386 228.656 14.2588 229.944 14.2588C231.091 14.2588 232.044 14.4287 232.803 14.7684L232.297 16.1673C231.585 15.8376 230.779 15.6727 229.885 15.6727C229.173 15.6727 228.621 15.8226 228.221 16.1173C227.885 16.3821 227.715 16.7069 227.715 17.0866C227.715 17.5112 227.909 17.861 228.291 18.1358C228.626 18.3906 229.238 18.6653 230.126 18.9651C231.209 19.3348 232.009 19.7695 232.52 20.2691C233.038 20.7587 233.297 21.3782 233.297 22.1177Z" fill="white"/>
<path d="M239.974 18.6851H237.75V22.4372C237.75 23.3915 238.144 23.8661 238.932 23.8661C239.291 23.8661 239.591 23.8411 239.826 23.7862L239.879 25.0901C239.485 25.215 238.956 25.28 238.309 25.28C237.509 25.28 236.885 25.0752 236.438 24.6605C235.991 24.2458 235.762 23.5513 235.762 22.5771V18.6851H234.433V17.3962H235.762V15.9823L237.744 15.4727V17.3962H239.968V18.6851H239.974Z" fill="white"/>
<path d="M250.02 21.1981C250.02 22.3872 249.62 23.3614 248.826 24.1208C247.99 24.9052 246.879 25.2949 245.496 25.2949C244.161 25.2949 243.096 24.9202 242.308 24.1658C241.514 23.4164 241.12 22.4671 241.12 21.323C241.12 20.124 241.526 19.1447 242.344 18.3853C243.161 17.6209 244.261 17.2412 245.643 17.2412C246.979 17.2412 248.049 17.6159 248.861 18.3703C249.637 19.0998 250.02 20.044 250.02 21.1981ZM247.926 21.2531C247.926 20.5436 247.743 19.9291 247.385 19.4195C246.961 18.805 246.355 18.4952 245.573 18.4952C244.761 18.4952 244.144 18.805 243.72 19.4195C243.355 19.9291 243.179 20.5486 243.179 21.2831C243.179 21.9925 243.355 22.607 243.72 23.1166C244.155 23.7311 244.767 24.0409 245.555 24.0409C246.326 24.0409 246.932 23.7261 247.367 23.1016C247.737 22.582 247.926 21.9625 247.926 21.2531Z" fill="white"/>
<path d="M256.584 18.9099C256.384 18.8799 256.172 18.8649 255.949 18.8649C255.237 18.8649 254.69 19.0948 254.302 19.5494C253.967 19.9541 253.796 20.4587 253.796 21.0732V25.1251H251.779L251.796 19.8342C251.796 18.9449 251.773 18.1355 251.72 17.4011H253.478L253.555 18.8799H253.608C253.82 18.3703 254.161 17.9606 254.62 17.6559C255.067 17.3811 255.555 17.2412 256.078 17.2412C256.267 17.2412 256.431 17.2512 256.584 17.2712V18.9099Z" fill="white"/>
<path d="M265.619 20.8937C265.619 21.2035 265.596 21.4583 265.548 21.6731H259.49C259.513 22.4375 259.808 23.017 260.366 23.4217C260.878 23.7814 261.537 23.9613 262.349 23.9613C263.243 23.9613 264.06 23.8414 264.801 23.5966L265.119 24.7907C264.26 25.1104 263.243 25.2703 262.066 25.2703C260.66 25.2703 259.549 24.9156 258.749 24.2111C257.949 23.5067 257.543 22.5624 257.543 21.3733C257.543 20.2092 257.919 19.24 258.666 18.4656C259.449 17.6412 260.513 17.2266 261.843 17.2266C263.154 17.2266 264.149 17.6412 264.819 18.4656C265.354 19.1201 265.619 19.9295 265.619 20.8937ZM263.696 20.449C263.707 19.9394 263.578 19.4998 263.302 19.1301C262.954 18.6554 262.413 18.4156 261.69 18.4156C261.031 18.4156 260.496 18.6504 260.084 19.1151C259.749 19.4848 259.549 19.9295 259.49 20.449H263.696Z" fill="white"/>
</g>
<defs>
<linearGradient id="paint0_linear_159_7873" x1="29.5232" y1="16.0938" x2="6.6504" y2="16.0938" gradientUnits="userSpaceOnUse">
<stop stop-color="#FEE000"/>
<stop offset="0.1941" stop-color="#FCCF0B"/>
<stop offset="0.5469" stop-color="#FAB318"/>
<stop offset="0.8279" stop-color="#F9A21B"/>
<stop offset="1" stop-color="#F99B1C"/>
</linearGradient>
<linearGradient id="paint1_linear_159_7873" x1="23.587" y1="17.9365" x2="5.55533" y2="39.1659" gradientUnits="userSpaceOnUse">
<stop stop-color="#EF4547"/>
<stop offset="1" stop-color="#C6186D"/>
</linearGradient>
<linearGradient id="paint2_linear_159_7873" x1="1.97826" y1="-4.1038" x2="16.7007" y2="13.2294" gradientUnits="userSpaceOnUse">
<stop stop-color="#279E6F"/>
<stop offset="0.3168" stop-color="#4DAB6D"/>
<stop offset="0.7398" stop-color="#6ABA6A"/>
<stop offset="1" stop-color="#74C169"/>
</linearGradient>
<clipPath id="clip0_159_7873">
<rect width="128" height="32" fill="white"/>
</clipPath>
<clipPath id="clip1_159_7873">
<rect width="128" height="32" fill="white" transform="translate(149.818)"/>
</clipPath>
</defs>
</svg>
