<svg width="20" height="20" viewBox="0 0 20 20" fill="none" xmlns="http://www.w3.org/2000/svg">
<path d="M14.8717 11.8475L11.2108 10.2708C10.43 9.935 9.53417 9.935 8.75417 10.2725L5.11667 11.8475C4.51417 12.1083 4.14 12.6783 4.13917 13.3342C4.13833 13.99 4.51167 14.5608 5.1125 14.8233L6.66667 15.5017V17.6617C6.66667 18.4733 7.14167 19.2167 7.87833 19.5558C8.51917 19.8508 9.2325 20 10 20C10.7675 20 11.4808 19.85 12.1233 19.5558C12.8583 19.2167 13.3333 18.4725 13.3333 17.6617V15.495L14.1667 15.1333V17.5008C14.1667 17.9617 14.5392 18.3342 15 18.3342C15.4608 18.3342 15.8333 17.9617 15.8333 17.5008C15.8333 17.5008 15.8333 13.3783 15.8333 13.3342C15.8333 12.6867 15.4658 12.1025 14.8717 11.8483V11.8475ZM9.41667 11.8025C9.77667 11.6458 10.1917 11.6458 10.5517 11.8008L14.1767 13.2817C14.1767 13.2933 14.1708 13.3025 14.17 13.3142L10.5575 14.8833C10.1942 15.0408 9.7775 15.0408 9.41417 14.8817L5.77833 13.3775L9.41583 11.8025H9.41667ZM11.6667 17.6608C11.6667 17.8267 11.5742 17.9733 11.4258 18.0417C10.5842 18.4275 9.415 18.4275 8.575 18.0417C8.42583 17.9733 8.33333 17.8267 8.33333 17.6608V16.2283L8.74833 16.4092C9.1425 16.5808 9.565 16.6667 9.98833 16.6667C10.4092 16.6667 10.83 16.5817 11.2225 16.4108L11.6667 16.2175V17.6608ZM5.83333 3.75C5.83333 4.44 5.27333 5 4.58333 5C3.89333 5 3.33333 4.44 3.33333 3.75C3.33333 3.06 3.89333 2.5 4.58333 2.5C5.27333 2.5 5.83333 3.06 5.83333 3.75ZM9.16667 3.75C9.16667 4.44 8.60667 5 7.91667 5C7.22667 5 6.66667 4.44 6.66667 3.75C6.66667 3.06 7.22667 2.5 7.91667 2.5C8.60667 2.5 9.16667 3.06 9.16667 3.75ZM15.8333 0H4.16667C1.86917 0 0 1.86917 0 4.16667V14.1667C0 16.4642 1.86917 18.3333 4.16667 18.3333C4.62667 18.3333 5 17.9608 5 17.5C5 17.0392 4.62667 16.6667 4.16667 16.6667C2.78833 16.6667 1.66667 15.545 1.66667 14.1667V7.5H18.3333V14.1667C18.3333 14.7758 18.1117 15.3633 17.7092 15.8192C17.405 16.1642 17.4375 16.6908 17.7833 16.995C18.1267 17.2992 18.6542 17.2675 18.9592 16.9208C19.6308 16.1608 20 15.1817 20 14.1658V4.16667C20 1.86917 18.1308 0 15.8333 0ZM1.66667 5.83333V4.16667C1.66667 2.78833 2.78833 1.66667 4.16667 1.66667H15.8333C17.2117 1.66667 18.3333 2.78833 18.3333 4.16667V5.83333H1.66667Z" fill="white"/>
</svg>
